<?xml version="1.0" encoding="UTF-8"?>
<svg id="Layer_1" data-name="Layer 1" xmlns="http://www.w3.org/2000/svg" viewBox="0 0 577.74 577.73">
  <defs>
    <style>
      .cls-1 {
        fill: #fff;
      }

      .cls-2 {
        fill: #020a50;
      }
    </style>
  </defs>
  <circle class="cls-1" cx="288.87" cy="285.07" r="237.36"/>
  <g>
    <path class="cls-2" d="M342.93,218.77c-35.54,0-64.34,28.81-64.34,64.34s28.81,64.34,64.34,64.34,64.34-28.81,64.34-64.34-28.81-64.34-64.34-64.34ZM354.35,268.86l-12.65,21.9c-1.56,2.71-5.03,3.64-7.74,2.07l-.4-.23c-2.71-1.56-3.64-5.03-2.07-7.74l12.65-21.9c1.56-2.71,5.03-3.64,7.74-2.07l.4.23c2.71,1.56,3.64,5.03,2.07,7.74ZM386.86,285.07c-3.76,0-6.89-2.74-7.54-6.44-3.05-17.34-18.19-30.52-36.4-30.52s-33.35,13.18-36.4,30.52c-.65,3.7-3.78,6.44-7.54,6.44h0c-4.68,0-8.33-4.18-7.55-8.79,4.18-24.66,25.64-43.43,51.49-43.43s47.31,18.78,51.49,43.43c.78,4.61-2.87,8.79-7.55,8.79Z"/>
    <path class="cls-2" d="M288.87,0C129.33,0,0,129.32,0,288.86s129.33,288.87,288.87,288.87,288.87-129.33,288.87-288.87S448.41,0,288.87,0ZM80.88,243.05h66.58c5.59,0,10.13,4.53,10.13,10.13s-4.53,10.13-10.13,10.13h-66.58c-5.59,0-10.13-4.53-10.13-10.13s4.53-10.13,10.13-10.13ZM148.68,327.09h-66.58c-5.59,0-10.13-4.53-10.13-10.13s4.53-10.13,10.13-10.13h66.58c5.59,0,10.13,4.53,10.13,10.13s-4.53,10.13-10.13,10.13ZM176.23,295.2h-66.58c-5.59,0-10.13-4.53-10.13-10.13s4.53-10.13,10.13-10.13h66.58c5.59,0,10.13,4.53,10.13,10.13s-4.53,10.13-10.13,10.13ZM479.95,337.9l-21.06,36.46c-4.46,7.73-13.86,11.1-22.22,7.97l-19.75-7.4c-5.76-2.16-12.17-1.17-17.46,2.01-1.18.72-2.37,1.41-3.57,2.08-5.37,2.97-9.43,8.03-10.45,14.1l-3.46,20.79c-1.46,8.81-9.09,15.25-18.01,15.25h-42.09c-8.93,0-16.54-6.46-18.01-15.25l-3.46-20.79c-1.01-6.07-5.06-11.13-10.45-14.12-1.2-.66-2.39-1.35-3.57-2.06-5.27-3.18-11.68-4.17-17.46-2.01l-19.75,7.4c-8.35,3.13-17.75-.23-22.22-7.95l-21.05-36.46c-4.46-7.73-2.67-17.55,4.22-23.22l16.29-13.42c4.74-3.89,7.09-9.95,6.98-16.08-.03-1.38-.03-2.76,0-4.14.11-6.17-2.24-12.19-6.98-16.1l-16.29-13.42c-6.88-5.67-8.67-15.48-4.22-23.21l21.05-36.46c4.46-7.74,13.87-11.11,22.23-7.97l19.73,7.4c5.78,2.16,12.19,1.17,17.46-2.01,1.17-.71,2.37-1.4,3.57-2.08,5.39-2.97,9.44-8.03,10.45-14.1l3.47-20.77v-.02c1.46-8.8,9.09-15.25,18.01-15.25h42.08c8.93,0,16.55,6.46,18.01,15.25l3.46,20.79c1.02,6.07,5.08,11.13,10.47,14.12,1.2.65,2.39,1.35,3.57,2.06,5.27,3.18,11.68,4.17,17.44,2.01l19.75-7.4c8.36-3.14,17.76.22,22.23,7.95l21.03,36.46c4.46,7.73,2.67,17.55-4.22,23.22l-16.28,13.42c-4.75,3.91-7.11,9.95-6.98,16.1.02,1.38.02,2.76,0,4.14-.13,6.13,2.22,12.17,6.98,16.08l16.29,13.42c6.88,5.68,8.67,15.5,4.22,23.21Z"/>
  </g>
</svg>